<svg width="300" height="300" viewBox="0 0 300 300" fill="none" xmlns="http://www.w3.org/2000/svg">
<rect x="12" y="12" width="47" height="24" rx="4" fill="black"/>
<path d="M23.996 28.168C23.372 28.168 22.828 28.056 22.364 27.832C21.9 27.608 21.54 27.276 21.284 26.836C21.028 26.388 20.9 25.84 20.9 25.192V19.6H21.896V25.204C21.896 25.892 22.08 26.408 22.448 26.752C22.816 27.096 23.332 27.268 23.996 27.268C24.66 27.268 25.176 27.096 25.544 26.752C25.912 26.408 26.096 25.892 26.096 25.204V19.6H27.104V25.192C27.104 25.84 26.976 26.388 26.72 26.836C26.464 27.276 26.1 27.608 25.628 27.832C25.164 28.056 24.62 28.168 23.996 28.168ZM31.7482 28.168C31.1402 28.168 30.5962 28.06 30.1162 27.844C29.6362 27.628 29.2562 27.304 28.9762 26.872C28.7042 26.432 28.5682 25.884 28.5682 25.228V24.976H29.5642V25.228C29.5642 25.924 29.7682 26.444 30.1762 26.788C30.5842 27.124 31.1082 27.292 31.7482 27.292C32.4042 27.292 32.9042 27.144 33.2482 26.848C33.5922 26.552 33.7642 26.18 33.7642 25.732C33.7642 25.42 33.6842 25.172 33.5242 24.988C33.3722 24.804 33.1562 24.656 32.8762 24.544C32.5962 24.424 32.2682 24.32 31.8922 24.232L31.2682 24.076C30.7802 23.948 30.3482 23.792 29.9722 23.608C29.5962 23.424 29.3002 23.184 29.0842 22.888C28.8762 22.584 28.7722 22.196 28.7722 21.724C28.7722 21.252 28.8882 20.844 29.1202 20.5C29.3602 20.156 29.6922 19.892 30.1162 19.708C30.5482 19.524 31.0442 19.432 31.6042 19.432C32.1722 19.432 32.6802 19.532 33.1282 19.732C33.5842 19.924 33.9402 20.212 34.1962 20.596C34.4602 20.972 34.5922 21.448 34.5922 22.024V22.528H33.5962V22.024C33.5962 21.616 33.5082 21.288 33.3322 21.04C33.1642 20.792 32.9282 20.608 32.6242 20.488C32.3282 20.368 31.9882 20.308 31.6042 20.308C31.0522 20.308 30.6082 20.432 30.2722 20.68C29.9362 20.92 29.7682 21.264 29.7682 21.712C29.7682 22.008 29.8402 22.248 29.9842 22.432C30.1282 22.616 30.3322 22.768 30.5962 22.888C30.8602 23 31.1762 23.1 31.5442 23.188L32.1682 23.344C32.6562 23.448 33.0922 23.592 33.4762 23.776C33.8682 23.952 34.1802 24.196 34.4122 24.508C34.6442 24.812 34.7602 25.212 34.7602 25.708C34.7602 26.204 34.6362 26.636 34.3882 27.004C34.1402 27.372 33.7882 27.66 33.3322 27.868C32.8842 28.068 32.3562 28.168 31.7482 28.168ZM36.3116 28V19.6H41.4836V20.512H37.3196V23.32H41.1476V24.232H37.3196V27.088H41.5436V28H36.3116ZM42.6773 28V27.1H43.8533V20.5H42.6773V19.6H45.9533C47.0573 19.6 47.9093 19.88 48.5093 20.44C49.1173 21 49.4213 21.86 49.4213 23.02V24.58C49.4213 25.748 49.1173 26.612 48.5093 27.172C47.9093 27.724 47.0573 28 45.9533 28H42.6773ZM44.8613 27.088H45.9533C46.7693 27.088 47.3853 26.888 47.8013 26.488C48.2173 26.088 48.4253 25.468 48.4253 24.628V22.984C48.4253 22.128 48.2173 21.504 47.8013 21.112C47.3853 20.72 46.7693 20.524 45.9533 20.524H44.8613V27.088Z" fill="#FCF7E6"/>
<rect x="0.5" y="0.5" width="299" height="299" rx="3.5" stroke="black"/>
</svg>
